name rise44.9368peak50.754fall52.0217.mot
datacolumns 19
datarows 29
range 6.04331100000000 6.08998300000000
endheader
time	ground_force1_vx	ground_force1_vy	ground_force1_vz	ground_force1_px	ground_force1_py	ground_force1_pz	ground_force2_vx	ground_force2_vy	ground_force2_vz	ground_force2_px	ground_force2_py	ground_force2_pz	ground_torque1_x	ground_torque1_y	ground_torque1_z	ground_torque2_x	ground_torque2_y	ground_torque2_z	
6.04331100000000	-43.37758500000000	811.32065999999998	56.45870900000000	0.17472800000000	0.00000000000000	0.06628100000000	-14.66604900000000	75.73006400000000	4.93733500000000	0.42660500000000	0.00000000000000	-0.11870400000000	0.00000000000000	24.30205800000000	0.00000000000000	0.00000000000000	1.38652700000000	0.00000000000000	
6.04497800000000	-43.70539300000000	808.51172399999996	56.24694800000000	0.17396100000000	0.00000000000000	0.06623400000000	-14.78116100000000	81.24193099999999	5.10918400000000	0.42840500000000	0.00000000000000	-0.11883800000000	0.00000000000000	24.14710600000000	0.00000000000000	0.00000000000000	1.52564800000000	0.00000000000000	
6.04664900000000	-44.04564600000000	805.55693900000006	56.00632500000000	0.17319100000000	0.00000000000000	0.06618200000000	-14.73352900000000	86.57297100000000	5.23819900000000	0.43011400000000	0.00000000000000	-0.11896300000000	0.00000000000000	23.98569500000000	0.00000000000000	0.00000000000000	1.66198300000000	0.00000000000000	
6.04831300000000	-44.39860300000000	802.45665199999996	55.73662500000000	0.17241900000000	0.00000000000000	0.06612600000000	-14.54282700000000	91.76175000000001	5.32782800000000	0.43174800000000	0.00000000000000	-0.11908200000000	0.00000000000000	23.81796900000000	0.00000000000000	0.00000000000000	1.79476000000000	0.00000000000000	
6.04998400000000	-44.76447300000000	799.21133299999997	55.43769000000000	0.17164700000000	0.00000000000000	0.06606500000000	-14.23063800000000	96.85524100000001	5.38218900000000	0.43331800000000	0.00000000000000	-0.11919400000000	0.00000000000000	23.64408000000000	0.00000000000000	0.00000000000000	1.92341000000000	0.00000000000000	
6.05165100000000	-45.14341700000000	795.82157299999994	55.10942500000000	0.17087400000000	0.00000000000000	0.06599900000000	-13.81868200000000	101.90396100000000	5.40561900000000	0.43483600000000	0.00000000000000	-0.11930000000000	0.00000000000000	23.46419500000000	0.00000000000000	0.00000000000000	2.04751600000000	0.00000000000000	
6.05331500000000	-45.53554800000000	792.28808200000003	54.75179500000000	0.17010300000000	0.00000000000000	0.06592900000000	-13.32733100000000	106.95764500000000	5.40228900000000	0.43630900000000	0.00000000000000	-0.11940100000000	0.00000000000000	23.27848800000000	0.00000000000000	0.00000000000000	2.16676800000000	0.00000000000000	
6.05497900000000	-45.94092500000000	788.61167999999998	54.36482800000000	0.16933200000000	0.00000000000000	0.06585300000000	-12.77448500000000	112.06170500000000	5.37589100000000	0.43774400000000	0.00000000000000	-0.11949700000000	0.00000000000000	23.08714300000000	0.00000000000000	0.00000000000000	2.28091200000000	0.00000000000000	
6.05664500000000	-46.35955600000000	784.79329600000005	53.94861200000000	0.16856400000000	0.00000000000000	0.06577300000000	-12.17483200000000	117.25460699999999	5.32942800000000	0.43914900000000	0.00000000000000	-0.11958900000000	0.00000000000000	22.89035200000000	0.00000000000000	0.00000000000000	2.38970900000000	0.00000000000000	
6.05831700000000	-46.79139600000000	780.83396400000004	53.50329900000000	0.16779900000000	0.00000000000000	0.06568700000000	-11.53947000000000	122.56621500000000	5.26508700000000	0.44052600000000	0.00000000000000	-0.11967700000000	0.00000000000000	22.68831400000000	0.00000000000000	0.00000000000000	2.49289400000000	0.00000000000000	
6.05997700000000	-47.23634200000000	776.73481700000002	53.02910500000000	0.16703800000000	0.00000000000000	0.06559600000000	-10.87586900000000	128.01703699999999	5.18419600000000	0.44188000000000	0.00000000000000	-0.11976200000000	0.00000000000000	22.48123300000000	0.00000000000000	0.00000000000000	2.59015100000000	0.00000000000000	
6.06165100000000	-47.69423700000000	772.49708399999997	52.52630500000000	0.16628100000000	0.00000000000000	0.06550000000000	-10.18810700000000	133.61828800000001	5.08726100000000	0.44321400000000	0.00000000000000	-0.11984400000000	0.00000000000000	22.26931900000000	0.00000000000000	0.00000000000000	2.68109400000000	0.00000000000000	
6.06331200000000	-48.16486400000000	768.12208099999998	51.99524100000000	0.16553000000000	0.00000000000000	0.06539800000000	-9.47731200000000	139.37259399999999	4.97405400000000	0.44453000000000	0.00000000000000	-0.11992300000000	0.00000000000000	22.05278800000000	0.00000000000000	0.00000000000000	2.76525700000000	0.00000000000000	
6.06497900000000	-48.64794900000000	763.61121300000002	51.43631200000000	0.16478500000000	0.00000000000000	0.06529100000000	-8.74224500000000	145.27518300000000	4.84374500000000	0.44583000000000	0.00000000000000	-0.12000000000000	0.00000000000000	21.83185600000000	0.00000000000000	0.00000000000000	2.84209300000000	0.00000000000000	
6.06665100000000	-49.14315900000000	758.96596499999998	50.84998000000000	0.16404600000000	0.00000000000000	0.06517800000000	-7.97994800000000	151.31537599999999	4.69505300000000	0.44711500000000	0.00000000000000	-0.12007400000000	0.00000000000000	21.60674300000000	0.00000000000000	0.00000000000000	2.91098600000000	0.00000000000000	
6.06831300000000	-49.65009700000000	754.18789800000002	50.23676900000000	0.16331600000000	0.00000000000000	0.06505900000000	-7.18640000000000	157.47821700000000	4.52640800000000	0.44838500000000	0.00000000000000	-0.12014700000000	0.00000000000000	21.37767000000000	0.00000000000000	0.00000000000000	2.97125700000000	0.00000000000000	
6.06997700000000	-50.16830800000000	749.27864399999999	49.59726000000000	0.16259300000000	0.00000000000000	0.06493500000000	-6.35712700000000	163.74608499999999	4.33610900000000	0.44964100000000	0.00000000000000	-0.12021800000000	0.00000000000000	21.14486100000000	0.00000000000000	0.00000000000000	3.02218600000000	0.00000000000000	
6.07164400000000	-50.69727400000000	744.23990100000003	48.93209000000000	0.16188000000000	0.00000000000000	0.06480500000000	-5.48774100000000	170.10019000000000	4.12245800000000	0.45088400000000	0.00000000000000	-0.12028800000000	0.00000000000000	20.90853700000000	0.00000000000000	0.00000000000000	3.06302900000000	0.00000000000000	
6.07331100000000	-51.23641500000000	739.07343300000002	48.24195600000000	0.16117700000000	0.00000000000000	0.06466900000000	-4.57436600000000	176.52185299999999	3.88388200000000	0.45211200000000	0.00000000000000	-0.12035600000000	0.00000000000000	20.66891800000000	0.00000000000000	0.00000000000000	3.09304000000000	0.00000000000000	
6.07497800000000	-51.78508600000000	733.78105800000003	47.52760700000000	0.16048300000000	0.00000000000000	0.06452800000000	-3.61394800000000	182.99351700000000	3.61902100000000	0.45332400000000	0.00000000000000	-0.12042300000000	0.00000000000000	20.42622500000000	0.00000000000000	0.00000000000000	3.11148600000000	0.00000000000000	
6.07664400000000	-52.34258200000000	728.36464999999998	46.78984600000000	0.15980000000000	0.00000000000000	0.06438100000000	-2.60445700000000	189.49948499999999	3.32678900000000	0.45452100000000	0.00000000000000	-0.12049000000000	0.00000000000000	20.18067400000000	0.00000000000000	0.00000000000000	3.11766800000000	0.00000000000000	
6.07831700000000	-52.90813200000000	722.82613000000003	46.02952400000000	0.15912900000000	0.00000000000000	0.06422800000000	-1.54496900000000	196.02635799999999	3.00640700000000	0.45570200000000	0.00000000000000	-0.12055500000000	0.00000000000000	19.93247800000000	0.00000000000000	0.00000000000000	3.11093600000000	0.00000000000000	
6.07998200000000	-53.48090400000000	717.16746499999999	45.24754400000000	0.15846900000000	0.00000000000000	0.06406900000000	-0.43566400000000	202.56322900000001	2.65741400000000	0.45686400000000	0.00000000000000	-0.12062000000000	0.00000000000000	19.68184800000000	0.00000000000000	0.00000000000000	3.09069500000000	0.00000000000000	
6.08164600000000	-54.06000000000000	711.39066200000002	44.44485200000000	0.15782100000000	0.00000000000000	0.06390500000000	0.72226100000000	209.10164800000001	2.27965800000000	0.45800700000000	0.00000000000000	-0.12068500000000	0.00000000000000	19.42899100000000	0.00000000000000	0.00000000000000	3.05642200000000	0.00000000000000	
6.08331400000000	-54.64446100000000	705.49776399999996	43.62244000000000	0.15718600000000	0.00000000000000	0.06373500000000	1.92672500000000	215.63541499999999	1.87326600000000	0.45912900000000	0.00000000000000	-0.12074900000000	0.00000000000000	19.17410600000000	0.00000000000000	0.00000000000000	3.00766700000000	0.00000000000000	
6.08498500000000	-55.23326600000000	699.49084800000003	42.78133900000000	0.15656400000000	0.00000000000000	0.06355900000000	3.17493300000000	222.16025900000000	1.43861200000000	0.46022800000000	0.00000000000000	-0.12081300000000	0.00000000000000	18.91739100000000	0.00000000000000	0.00000000000000	2.94405300000000	0.00000000000000	
6.08664700000000	-55.82533100000000	693.37201700000003	41.92262000000000	0.15595400000000	0.00000000000000	0.06337800000000	4.46356700000000	228.67343399999999	0.97627400000000	0.46130400000000	0.00000000000000	-0.12087700000000	0.00000000000000	18.65903600000000	0.00000000000000	0.00000000000000	2.86528500000000	0.00000000000000	
6.08831000000000	-56.41951400000000	687.14340000000004	41.04738700000000	0.15535700000000	0.00000000000000	0.06319200000000	5.78896400000000	235.17330000000001	0.48698500000000	0.46235400000000	0.00000000000000	-0.12094100000000	0.00000000000000	18.39922500000000	0.00000000000000	0.00000000000000	2.77114100000000	0.00000000000000	
6.08998300000000	-57.01460900000000	680.80714599999999	40.15678000000000	0.15477400000000	0.00000000000000	0.06300000000000	7.14728800000000	241.65891199999999	-0.02839900000000	0.46337700000000	0.00000000000000	-0.12100500000000	0.00000000000000	18.13813700000000	0.00000000000000	0.00000000000000	2.66147600000000	0.00000000000000	
